<?xml version="1.0" encoding="iso-8859-1"?>
<!-- Generator: Adobe Illustrator 19.1.0, SVG Export Plug-In . SVG Version: 6.00 Build 0)  -->
<svg version="1.1" id="Capa_1" xmlns="http://www.w3.org/2000/svg" xmlns:xlink="http://www.w3.org/1999/xlink" x="0px" y="0px"
	 viewBox="0 0 510.541 510.541" style="enable-background:new 0 0 510.541 510.541;" xml:space="preserve">
<g>
	<g>
		<path d="M221.318,261.558c0-15.09-17.605-15.09-22.635-15.09c-5.03,0-22.635,2.515-22.635,15.09
			c0,15.09,17.605,15.09,22.635,15.09S221.318,276.648,221.318,261.558z"/>
		<circle cx="324.432" cy="251.498" r="22.635"/>
		<path d="M289.223,402.397c0,0-27.665,5.03-52.815-10.06c-25.15-15.09-40.24-32.695-40.24-32.695
			c-2.515-5.03-10.06-5.03-15.09-5.03c-2.515,2.515-5.03,7.545-5.03,12.575v22.635c0,7.545,5.03,12.575,12.575,12.575
			c5.03,0,10.06-2.515,10.06-7.545c7.545,5.03,15.09,12.575,25.15,17.605c20.12,12.575,40.24,15.09,55.33,15.09
			c7.545,0,12.575,0,15.09,0c7.545,0,12.575-7.545,10.06-15.09C301.798,404.912,296.768,399.882,289.223,402.397z"/>
		<path d="M462.756,176.049c0-5.03-2.515-7.545-5.03-10.06c0-2.515-2.515-2.515-5.03-2.515C450.181,60.36,352.097,2.515,259.043,0
			l0,0h-2.515h-2.515l0,0C165.989,2.515,50.3,55.33,50.3,168.504c-7.545,5.03-15.09,20.12-15.09,47.785
			c0,65.389,22.635,85.509,37.725,93.054c2.515,72.934,42.755,138.324,105.629,171.019c22.635,22.635,50.3,27.665,72.934,30.18
			c17.605,0,60.36-5.03,85.509-27.665c62.875-32.695,103.114-98.084,105.629-173.534c12.575-7.545,32.695-30.18,32.695-93.054
			C475.331,196.168,470.301,183.594,462.756,176.049z M427.547,289.223c-5.03,0-10.06,7.545-10.06,12.575
			c0,70.419-35.21,128.264-93.054,158.444l-2.515,2.515c-17.605,17.605-42.755,22.635-57.845,22.635c0,0,0,0-2.515,0
			c-20.12,0-45.27-5.03-65.389-25.15l-2.515-2.515c-57.845-30.18-95.569-90.539-95.569-158.444c0-5.03-5.03-10.06-10.06-12.575
			c0,0-27.665-7.545-27.665-72.934c0-22.635,5.03-27.665,5.03-27.665h2.515l32.695,47.785c2.515,2.515,7.545,5.03,12.575,5.03
			c7.545,0,12.575-5.03,12.575-12.575v-30.18c50.3-5.03,110.659-32.695,128.264-95.569c17.605,15.09,47.785,27.665,103.114,27.665
			h2.515c0,0,2.515,0,7.545,2.515c2.515,2.515,10.06,10.06,10.06,37.725v57.845c0,7.545,5.03,12.575,12.575,12.575h25.15
			c5.03,0,7.545-2.515,10.06-5.03l25.15-32.695c0,5.03,2.515,7.545,2.515,15.09C450.181,281.678,427.547,289.223,427.547,289.223z"
			/>
		<path d="M213.773,326.947c0,7.545,5.03,12.575,12.575,12.575h5.03c5.03,7.545,17.605,17.605,30.18,17.605
			c20.12,0,35.21-20.12,35.21-22.635c2.515-5.03,2.515-10.06,0-12.575s-5.03-7.545-7.545-7.545h-12.575
			c-7.545,0-12.575,5.03-12.575,12.575c0,2.515,0,2.515,0,2.515c-5.03,2.515-12.575-5.03-17.605-10.06
			c-2.515-2.515-5.03-5.03-10.06-5.03h-10.06C218.803,314.372,213.773,319.402,213.773,326.947z"/>
		<path d="M223.833,213.773c-2.515-7.545-10.06-10.06-15.09-7.545l-47.785,17.605c-7.545,2.515-12.575,10.06-10.06,15.09
			s7.545,7.545,12.575,7.545c2.515,0,2.515,0,5.03,0l47.785-17.605C221.318,226.348,223.833,218.803,223.833,213.773z"/>
		<path d="M276.648,213.773h50.3c7.545,0,12.575-5.03,12.575-12.575c0-7.545-5.03-12.575-12.575-12.575h-50.3
			c-7.545,0-12.575,5.03-12.575,12.575C264.073,208.743,269.103,213.773,276.648,213.773z"/>
	</g>
</g>
<g>
</g>
<g>
</g>
<g>
</g>
<g>
</g>
<g>
</g>
<g>
</g>
<g>
</g>
<g>
</g>
<g>
</g>
<g>
</g>
<g>
</g>
<g>
</g>
<g>
</g>
<g>
</g>
<g>
</g>
</svg>
